<?xml version="1.0" encoding="utf-8"?>
<!-- Generator: Adobe Illustrator 19.0.0, SVG Export Plug-In . SVG Version: 6.00 Build 0)  -->
<svg version="1.1" id="Layer_1" xmlns="http://www.w3.org/2000/svg" xmlns:xlink="http://www.w3.org/1999/xlink" x="0px" y="0px"
	 viewBox="7 -8 30 30" style="enable-background:new 7 -8 30 30;" xml:space="preserve">
<style type="text/css">
	.st0{fill:#B2B2B2;}
	.st1{enable-background:new    ;}
	.st2{fill:#7D7D7D;}
</style>
<g>
	<circle class="st0" cx="22" cy="7" r="15"/>
	<g class="st1">
		<path class="st2" d="M20.5,13.8c-3.4,0-6.1-2.7-6.1-6.1s2.7-6.1,6.1-6.1c1.7,0,3,0.6,4.1,1.6l-1.7,1.6c-0.5-0.4-1.2-0.9-2.4-0.9
			c-2.1,0-3.8,1.7-3.8,3.9s1.7,3.9,3.8,3.9c2.4,0,3.3-1.8,3.5-2.6h-3.5V6.8h5.8c0.1,0.3,0.1,0.6,0.1,1C26.4,11.3,24,13.8,20.5,13.8z
			 M33.7,8.5h-1.8v1.8h-1.8V8.5h-1.8V6.8h1.8V5h1.8v1.8h1.8V8.5z"/>
	</g>
</g>
</svg>
