<svg xmlns="http://www.w3.org/2000/svg" xmlns:xlink="http://www.w3.org/1999/xlink" viewBox="0 0 2000 300"><style>.st0{clip-path:url(#SVGID_2_)}.st1{fill-rule:evenodd;clip-rule:evenodd;fill:#5bbc2e}.st2,.st3{stroke:#37a000;stroke-width:3.5;stroke-miterlimit:10}.st2{clip-path:url(#SVGID_2_);fill:none}.st3{stroke-linecap:round}.st3,.st4,.st5{fill:none;stroke-linejoin:round}.st4{stroke:#37a000;stroke-width:3.5;stroke-miterlimit:10}.st5{clip-path:url(#SVGID_2_)}.st5,.st6,.st7{stroke:#359e03;stroke-width:3.5;stroke-miterlimit:10}.st6{stroke-linejoin:round;fill:none}.st7{fill:#f1f1f2}.st10,.st8,.st9{clip-path:url(#SVGID_2_);stroke-width:3.5;stroke-miterlimit:10}.st8{fill:none;stroke:#359e03}.st10,.st9{stroke-linecap:round;stroke-linejoin:round}.st9{stroke:#37a000;fill:none}.st10{fill:#339c54}.st10,.st11,.st12{stroke:#37a000}.st11,.st12,.st13{stroke-miterlimit:10}.st11{clip-path:url(#SVGID_2_);stroke-width:2;stroke-linecap:round;stroke-linejoin:round;fill:#37a000}.st12{fill:#339c54}.st13{fill:none;stroke:#339c54;stroke-width:3.5;stroke-linecap:round;stroke-linejoin:round}.st14{fill:#37a000}.st15,.st16,.st17{fill:none}.st15,.st16,.st17,.st18,.st19{stroke-linejoin:round;stroke-miterlimit:10}.st15{clip-path:url(#SVGID_2_);stroke:#37a000;stroke-width:3.5}.st16,.st17,.st18,.st19{stroke-linecap:round}.st16{clip-path:url(#SVGID_2_);stroke:#37a000;stroke-width:3}.st17{stroke:#359e03;stroke-width:3.5}.st18,.st19{fill:#339c54;stroke:#37a000;stroke-width:2}.st19{clip-path:url(#SVGID_4_);fill:none;stroke-width:3.5}.st20{fill:#37a000}.st20,.st21{clip-path:url(#SVGID_4_)}.st22{clip-path:url(#SVGID_6_);fill:none;stroke:#37a000;stroke-width:3.5;stroke-linecap:round;stroke-linejoin:round;stroke-miterlimit:10}</style><defs><path id="SVGID_1_" d="M0 0h2000v300H0z"/></defs><clipPath id="SVGID_2_"><use xlink:href="#SVGID_1_" overflow="visible"/></clipPath><path class="st0 st1" d="M0 0h2000v300H0z" id="Rectangle_1_copy_5_"/><path class="st2" d="M1664.7 141.2v-28.4c1.1-10.5 9.9-18.7 20.7-18.7h42.3c9.2 0 16.7-7.5 16.7-16.7v-1.5c0-9.2-7.5-16.7-16.7-16.7h-10.3c-9.2 0-16.7-7.5-16.7-16.7 0-10.4 8.4-18.7 18.7-18.7h60.8s21.8-1.2 21.8 20.4m-13.3 167.1H1749c-11.8 0-21.4-9.6-21.4-21.4v-8.5"/><path class="st3" d="M1497.1 146.2l5.9 6.1-29.6 28.5-15-15.1 6.6-6.7 9.1 9.5zm30.3-4.1l-39.1 37.6 4.1 25.6-22.8-12.3-23.1 11.8 4.7-25.5-18.4-18.3 25.7-3.5 11.8-23.1 9.6 20.1"/><g class="st0"><circle class="st3" cx="1726.6" cy="148" r="33.8"/><path class="st4" d="M1811 133.1h-115.1m60.1 30.2h-60.1m30.7 19.5v-67.7m7.5-.2s12.7 12.7 12.7 32.6-12.7 33.7-12.7 33.7m-14.8-66.3s-12.7 12.7-12.7 32.6 12.7 33.7 12.7 33.7"/></g><g class="st0"><path class="st4" d="M54.4 134.6v7.7s-15.6 5.9-20.9 8.3-6 8.8-6 11.1v7.7h74.8v-7.7c0-1.8-.7-8.7-6-11.1s-20.9-8.3-20.9-8.3v-7.7"/><ellipse class="st4" cx="64.8" cy="114.3" rx="18.9" ry="24.7"/><path class="st4" d="M83.8 109.1s-10.6 4.4-19.9-6.2c0 0-6.1 14.5-17.8 7.1"/></g><path class="st5" d="M1627.2 254.4v-11.3h-128.8v10.5m64.4 0v-10.5"/><circle class="st5" cx="1627.2" cy="263" r="9.8"/><circle class="st5" cx="1562.8" cy="263" r="9.8"/><circle class="st5" cx="1498.7" cy="263" r="9.8"/><path class="st5" d="M1562.8 219.3v23.8"/><g class="st0"><path class="st6" d="M1575.6 113.6h-48v104.6h72.3v-82.3z"/><path class="st7" d="M1536.5 206.5h52.4m-52.4-10.1h52.4m-52.4-10.1h52.4m-52.4-10.2h52.4m-52.4-10.1h52.4m-52.4-10.1h52.4m-52.4-10.1h52.4"/><path class="st6" d="M1599.9 135.9h-24.5v-21.6"/></g><path class="st8" d="M1691.4 143.3l-90.9-1.1"/><circle id="XMLID_99_" class="st9" cx="226.9" cy="249.5" r="26"/><path id="XMLID_97_" class="st9" d="M214.9 248.6l9.5 9.5 14.5-17.2"/><path id="XMLID_96_" class="st9" d="M336.4 196.9l-16.8 6.1"/><path id="XMLID_95_" class="st9" d="M319.6 185.2l16.8 6.1"/><path id="XMLID_93_" class="st9" d="M218.7 201.8v-16.6"/><g id="XMLID_91_" class="st0"><path id="XMLID_92_" class="st3" d="M319.6 200.3v2.7H195.7c-1.5 0-2.6-.8-2.6-1.8V187c0-1 1.2-1.8 2.6-1.8h123.8v15.1z"/></g><path class="st0 st3" d="M276.5 194.2l-7-.2-6.9.2-6.9-.2-6.9.2-6.9-.2" id="XMLID_89_"/><path id="XMLID_88_" class="st9" d="M336.4 196.9l-16.8 6.1"/><path id="XMLID_87_" class="st9" d="M319.6 185.2l16.8 6.1"/><path id="XMLID_86_" class="st9" d="M211.8 202.2v-16.5"/><path id="XMLID_84_" class="st10" d="M343 194.1l-8.1-3.4v6.8z"/><g id="XMLID_82_" class="st0"><path id="XMLID_83_" class="st3" d="M319.6 200.3v2.7H195.7c-1.5 0-2.6-.8-2.6-1.8V187c0-1 1.2-1.8 2.6-1.8h123.8v15.1z"/></g><path id="XMLID_80_" class="st9" d="M319.6 194.1h-99.5"/><path class="st9" d="M-48.7 346.9h-61.1c-1.7 0-3 1.4-3 3v38.4c0 1.7 1.4 3 3 3h41.6l.6 12.5 9.7-12.5h9.1c1.7 0 3-1.4 3-3V350c.1-1.7-1.3-3.1-2.9-3.1z"/><path class="st11" d="M-79.6 370.5l-4.3-9.5c-1.4-3.1.9-6.7 4.3-6.7 3.5 0 5.8 3.6 4.3 6.7l-4.3 9.5z"/><path class="st9" d="M458.9 275.4H357.5v-133h78.7l22.7 22.2zm-24.8-133v24.2h24.8m-53.7 8.4h39.3m-71.8-17.4h61.4m-28.9 31.9h39.3m-39.3 14.4h39.3m-39.3 23.4h39.3m-39.3 14.5h39.3m-39.3 14.4h39.3m-71.8-77.1h20.4v20.4h-20.4zm5.3 6.5l4.9 6 15.9-19.5m-26.1 59.2h20.4v20.4h-20.4zm5.3 6.5l4.9 6 15.9-19.5m-134.9-65.9h-86c-4.2 0-7.7-3.4-7.7-7.7V28.1c0-4.2 3.4-7.7 7.7-7.7h86c4.2 0 7.7 3.4 7.7 7.7v122.7c0 4.2-3.5 7.6-7.7 7.6zM179.4 30.2h83v118.3h-83zm50 40h18v44h-18zm-18 17.4h18v26.7h-18zm-17.9 13.3h18v13.3h-18z"/><g class="st0"><path class="st3" d="M1681.8 235.6c-.9.5-1.9.9-2.9 1.2m-3.8 1c-5.2.8-10.7-.1-15.5-3-10.8-6.6-14.2-20.6-7.6-31.4"/><path class="st3" d="M1703.4 246.3l-6.6-7.5c12.3-12.9 12.8-33.3.8-46.9-12.7-14.4-34.7-15.8-49.1-3.1-14.4 12.7-15.8 34.7-3.1 49.1 12 13.6 32.3 15.6 46.7 5l6.6 7.5m-49.1-16c-10.7-12.1-9.6-30.7 2.6-41.4s30.7-9.6 41.4 2.6c10.7 12.1 9.6 30.7-2.6 41.4s-30.7 9.5-41.4-2.6zm76.3 42.5l.4-.4c2.5-2.2 2.7-5.9.5-8.4l-16.7-19-9.3 8.2 16.7 19c2.2 2.6 5.9 2.8 8.4.6zm-3163.1 659.81l-9.297 8.205-3.64-4.124 9.298-8.202z"/></g><path class="st0 st3" d="M437.1 100.4h-72.9c-3.1 0-5.5-2.5-5.5-5.5v-46c0-3.1 2.5-5.5 5.5-5.5h72.9c3.1 0 5.5 2.5 5.5 5.5v45.9c.1 3.1-2.4 5.6-5.5 5.6zm-77.3-45.3h82m-82.7 13.1h82.7m-76.5-.9L376.6 56m-1.8 11.7l11.5-11.5m-22.9 25.7h28.8m-28.6 7.9h18.1m39.6-7.9h12M292.1 242.6h-14.9c-1.6 0-3 1.3-2.9 3l.1 25.7c0 1.6 1.3 2.9 2.9 2.9h14.8c1.6 0 2.9-1.3 2.9-2.9v-25.7c.1-1.7-1.2-3-2.9-3zm45-.7c0-2.4-1.9-4.3-4.3-4.3h-19.9s1.8-4 1.8-8-1.5-7.7-1.5-7.7c-.7-1.6-2.2-2.7-4-2.7-2.4 0-4.3 1.9-4.3 4.3v7l-9.2 14.8v23.6c.4 1.9 2.2 3.4 4.2 3.4H326c2.4 0 4.3-1.9 4.3-4.3 0-2.1-1.5-3.8-3.5-4.2v-.1h1.4c2.4 0 4.3-1.9 4.3-4.3 0-2.2-1.6-4-3.7-4.3h1.7c2.4 0 4.3-1.9 4.3-4.3s-1.9-4.3-4.3-4.3h-.2 2.5c2.4-.2 4.3-2.2 4.3-4.6z"/><g class="st0"><circle class="st3" cx="1619.9" cy="66.7" r="41.8"/><circle class="st3" cx="1619.9" cy="66.7" r="35.5"/><path class="st3" d="M1602.4 67.6h16.8l11.5-22.5"/><circle class="st12" cx="1619.2" cy="67.6" r="3"/><path class="st3" d="M1619.9 42v-4.7m0 59.1v-4.7m24.9-24.9h4.7m-59.1 0h4.7m42.4-17.5l3.3-3.3m-41.7 41.7l3.3-3.3m35.1 0l3.3 3.3M1599.1 46l3.3 3.3"/></g><g class="st0"><path class="st3" d="M519.8 160.9h-29.5c-9.6 0-17.3-7.7-17.3-17.3V56.3c0-9.6 7.7-17.3 17.3-17.3h29.5c9.6 0 17.3 7.7 17.3 17.3v87.2c0 9.7-7.8 17.4-17.3 17.4zm-42.2-107h54.7V146h-54.7z"/><circle class="st3" cx="505" cy="153.5" r="3.2"/><path class="st14" d="M505 45.8c2.4 0 2.4-3.8 0-3.8s-2.4 3.8 0 3.8z"/><path class="st3" d="M500.8 48.2h8.5m4.4 25.1c6.2 3.2 10.4 9.6 10.4 17 0 10.5-8.5 19.1-19.1 19.1-10.5 0-19.1-8.5-19.1-19.1 0-7.7 4.5-14.3 11-17.3m25.3 25.1c-1.8-3-5.5-6.6-12.8-6.6v-3.9c2.4-1.5 3.9-4.3 3.9-7.3v-5c0-4.6-3.7-8.4-8.4-8.4-4.6 0-8.4 3.8-8.4 8.4l.1 5.2c0 3 1.6 5.6 3.9 7.1v3.9h-.2c-7 0-10.7 3.3-12.6 6.3m5.3 23.4h25.2m-19 6.5H512"/></g><path class="st2" d="M148.7 112.6c0 1.2-1 2.2-2.2 2.2h-3.1v8l-10.3-8H99.6c-1.2 0-2.2-1-2.2-2.2V83.8c0-1.8.9-2.7 2.2-2.7h46.9c1.3 0 2.2.9 2.2 2.7v28.8zm-19-15.5c0 .6.5 1.1 1.1 1.1.6 0 1.1-.5 1.1-1.1 0-.6-.5-1.1-1.1-1.1-.6 0-1.1.5-1.1 1.1"/><circle class="st2" cx="130.8" cy="97.1" r="1.1"/><path class="st2" d="M111.8 97.1c0 .6.5 1.1 1.1 1.1.6 0 1.1-.5 1.1-1.1 0-.6-.5-1.1-1.1-1.1-.6 0-1.1.5-1.1 1.1"/><circle class="st2" cx="113" cy="97.1" r="1.1"/><path class="st2" d="M120.8 97.1c0 .6.5 1.1 1.1 1.1.6 0 1.1-.5 1.1-1.1 0-.6-.5-1.1-1.1-1.1-.6 0-1.1.5-1.1 1.1"/><circle class="st2" cx="121.9" cy="97.1" r="1.1"/><path class="st2" d="M57.4 62c0 1.4 1.2 2.6 2.6 2.6h3.6V74l12.1-9.3H115c1.4 0 2.6-1.2 2.6-2.6V28.3c0-2.1-1-3.1-2.6-3.1H60c-1.6 0-2.6 1-2.6 3.1V62zm53.1-23.2H65.9m44.6 0H65.9m44.6 10.3H79.2m31.3 0H79.2m57.9 32.6c0-11-8.9-19.9-19.9-19.9"/><path class="st15" d="M121.8 114.3v70.6"/><path class="st9" d="M23.7 200.3h153v83.9h-153zm153 0h-153v-6.2c0-4.8 3.9-8.7 8.7-8.7H168c4.8 0 8.7 3.9 8.7 8.7v6.2zM138 234v30.9H61.7v-44.5h62.9m-62.9 0L99.8 246l26.6-18"/><circle class="st16" cx="137.2" cy="221.4" r="11.6"/><path class="st0 st12" d="M136.4 219.4l-1.3.3-.3-1.4 2.2-.6h1.1v7.6h-1.6v-5.9z"/><path class="st9" d="M300.1 32.7h28.7v133.8h-28.7zm17.3 0h11.3m-14.3 11h14.3m-11.3 11h11.3m-14.3 11h14.3m-11.3 11h11.3m-14.3 11h14.3m-11.3 11h11.3m-14.3 11h14.3m-11.3 11h11.3m-14.3 11.1h14.3m-11.3 11h11.3m-14.3 11h14.3"/><g class="st0"><path class="st17" d="M1845.9 212.5c0-15.8-12.8-28.5-28.5-28.5-15.8 0-28.5 12.8-28.5 28.5 0 9.6 4.8 18.1 12.1 23.3l-10.6 24.8 10.4-2.7 6.3 8.8 10.4-24.1 10.4 24.1 6.3-8.8 10.4 2.7-10.6-24.8c7.2-5.2 11.9-13.7 11.9-23.3zm-38 5.5l5.3 6.6 13.4-19.4"/><circle class="st17" cx="1817.4" cy="212.6" r="20.4"/></g><path class="st8" d="M270 91.7h29.5m99.6 48.8v-40.2M200.9 247.5h-22.6m106.6-5.9v-36.5"/><g class="st0"><path id="XMLID_79_" class="st3" d="M1811.6 95.1v70c0 1.8 1.5 3.3 3.3 3.3h126.6c1.8 0 3.3-1.5 3.3-3.3v-70h-133.2z"/><path id="XMLID_78_" class="st3" d="M1936.7 83.2h-117c-4.4 0-8 3.6-8 8v3.9h133.1v-3.9c-.1-4.4-3.7-8-8.1-8z"/><path id="XMLID_77_" class="st3" d="M1883.6 145.5h28v8.2h-28z"/><path id="XMLID_76_" class="st3" d="M1867.6 133.4h60"/><path id="XMLID_75_" class="st3" d="M1867.6 123.4h60"/><path id="XMLID_73_" class="st3" d="M1867.6 113.8h60"/><path id="XMLID_71_" class="st3" d="M1841.6 130.2c-3.7 0-6.8-3-6.8-6.8 0-3.7 3-6.8 6.8-6.8 1.8 0 3.4.7 4.6 1.8l6.2-6.2c-2.8-2.7-6.6-4.4-10.8-4.4-8.6 0-15.6 7-15.6 15.6s7 15.6 15.6 15.6c4.2 0 8-1.7 10.8-4.3l-6-6.5c-1.2 1.3-2.9 2-4.8 2z"/><path id="XMLID_69_" class="st3" d="M1852.4 112.2c2.9 2.8 4.8 6.8 4.8 11.2 0 4.4-1.8 8.4-4.8 11.2l-6-6.5c1.2-1.2 2-2.9 2-4.8 0-2-.9-3.8-2.2-5l6.2-6.1z"/></g><g class="st0"><path id="XMLID_67_" class="st3" d="M1890.3 47.4l11-6.6 21.5 10.4-21.5 10.3-11-6.5"/><circle id="XMLID_66_" class="st18" cx="1901.6" cy="51.1" r="3"/><path class="st3" d="M1922.8 51.2l-1.9-.1-2 .1-1.9-.1-1.9.1-1.9-.1-1.9.1-2-.1-1.9.1-1.9-.1-1.9.1-2-.1" id="XMLID_64_"/><path id="XMLID_62_" class="st3" d="M1855.4 57.9c-2.1 0-4.2.2-6.1.5-5.6.9-11.3 1.4-16.9 1.4h-7.8c-5.7 0-20.2-2.8-35.3-3.5-21.4-1.1-24-.3-24-.3v-9.2s3.3.7 25.1-.5c14.7-.8 28.7-3.6 34.3-3.6h7.5c5.8 0 11.5.5 17.2 1.4 1.9.3 4 .5 6.1.5 3.6 0 6.9-.5 9.6-1.2 1.9-.5 3.8-.9 5.7-.9 5.2 0 8.6-.1 8.6-.1 2.2 0 4 1.8 4 4v9.7c0 2.2-1.8 4-4 4 0 0-3.5 0-8.8-.1-1.9 0-3.8-.4-5.7-.9-2.7-.7-6-1.2-9.5-1.2z"/><path class="st3" d="M1792.7 48.4l-.1.5.1.5-.1.6.1.5-.1.5.1.6-.1.5.1.5v.6l.1.5-.1.5" id="XMLID_60_"/><path class="st3" d="M1884 55l.5.1.6-.1.6.1.6-.1.5.1.6-.1.6.1.6-.1.6.1.5-.1h.7l-.1-.7.1-.7-.1-.7.1-.7-.1-.7.1-.6-.1-.7.1-.7-.1-.7.1-.7-.1-.7-.6-.1-.5.1-.6-.1-.6.1-.6-.1-.5.1-.6-.1-.6.1-.6-.1-.6.1-.5-.1" id="XMLID_58_"/><path class="st3" d="M1890.4 45.7l-.1 1 .1 1-.1 1 .1 1-.1 1 .1 1-.1 1 .1 1-.1 1 .1 1-.1 1" id="XMLID_56_"/></g><circle class="st9" cx="1900.8" cy="215.2" r="9.3"/><circle class="st9" cx="1936.1" cy="256.5" r="9.3"/><path class="st9" d="M1919.2 219.6c.6-2.6 3.1-4.2 5.7-3.9.1-2.9-.4-5.7-1.3-8.4-2.4 1.1-5.3.3-6.6-2-1.4-2.3-.8-5.2 1.3-6.8-1.9-2-4.2-3.7-6.8-5-.9 2.5-3.5 3.9-6.1 3.3s-4.2-3.1-3.9-5.7c-2.9-.1-5.7.4-8.4 1.3 1.1 2.3.2 5.2-2 6.5-2.3 1.4-5.2.8-6.7-1.2-2 1.9-3.8 4.2-5.1 6.8 2.4.9 3.9 3.5 3.2 6.1-.6 2.6-3.1 4.3-5.7 3.9-.1 2.9.4 5.8 1.3 8.4 2.4-1.2 5.3-.4 6.7 1.9 1.4 2.3.8 5.3-1.4 6.9 1.9 2.1 4.3 3.8 6.9 5.1.8-2.6 3.5-4.1 6.1-3.4 2.7.6 4.3 3.2 3.9 5.9 2.9.1 5.8-.4 8.5-1.3-1.2-2.4-.3-5.3 2-6.7 2.3-1.4 5.2-.8 6.8 1.3 2-2 3.8-4.3 5-6.9-2.6-.9-4-3.5-3.4-6.1zm35.3 41.3c.6-2.6 3.1-4.2 5.7-3.9.1-2.9-.4-5.7-1.3-8.4-2.4 1.1-5.3.3-6.6-2-1.4-2.3-.8-5.2 1.3-6.8-1.9-2-4.2-3.7-6.8-5-.9 2.5-3.5 3.9-6.1 3.3s-4.2-3.1-3.9-5.7c-2.9-.1-5.7.4-8.4 1.3 1.1 2.3.2 5.2-2 6.5-2.3 1.4-5.2.8-6.7-1.2-2 1.9-3.8 4.2-5.1 6.8 2.4.9 3.9 3.5 3.2 6.1-.6 2.6-3.1 4.3-5.7 3.9-.1 2.9.4 5.8 1.3 8.4 2.4-1.2 5.3-.4 6.7 1.9 1.4 2.3.8 5.3-1.4 6.9 1.9 2.1 4.3 3.8 6.9 5.1.8-2.6 3.5-4.1 6.1-3.4 2.7.6 4.3 3.2 3.9 5.9 2.9.1 5.8-.4 8.5-1.3-1.2-2.4-.3-5.3 2-6.7 2.3-1.4 5.2-.8 6.8 1.3 2-2 3.8-4.3 5-6.9-2.6-.9-4.1-3.5-3.4-6.1z"/><g class="st0"><path class="st3" d="M593.3 280.5h-56.7c-2.5 0-4.6-2-4.6-4.6v-51.7c0-2.5 2-4.6 4.6-4.6h56.7c2.5 0 4.6 2 4.6 4.6v51.7c0 2.5-2.1 4.6-4.6 4.6zm-23.1-35.3c0-3-2.5-5.4-5.4-5.3-2.8.1-5.1 2.4-5.1 5.1-.1 1.9.9 3.6 2.4 4.6.6.4.9 1.2.6 1.9l-3.1 8.7h10.6l-3.1-8.8c-.2-.7 0-1.5.6-1.9 1.5-.8 2.5-2.4 2.5-4.3zm-10.6-18.8h-18.2c-1.7 0-3 1.3-3 3v43.8"/><defs><path id="SVGID_3_" d="M597.9 213.8H635v69.3h-37.1z"/></defs><clipPath id="SVGID_4_"><use xlink:href="#SVGID_3_" overflow="visible"/></clipPath><path class="st19" d="M625.9 264.3l-49.8 15.3c-3.8 1.2-7.8-1-8.9-4.7L558 245c-1.2-3.8 1-7.8 4.7-8.9l49.8-15.3c3.8-1.2 7.8 1 8.9 4.7l9.2 29.9c1.2 3.8-.9 7.8-4.7 8.9z"/><path class="st20" d="M603.048 62.07l63.47-19.508 2.526 8.22-63.47 19.508z"/><path class="st21 st3" d="M613.6 255.1l2.7-.4 2.6-1.2 2.7-.4"/><defs><path id="SVGID_5_" d="M537.5 282h-47.3v-59.5H532v53.8z"/></defs><clipPath id="SVGID_6_"><use xlink:href="#SVGID_5_" overflow="visible"/></clipPath><path class="st22" d="M534.7 280.5h-16.3c-1.5 0-2.8-1.2-2.8-2.8v-.8c0-1.5 1.2-2.8 2.8-2.8h16.3c1.5 0 2.8 1.2 2.8 2.8v.8c-.1 1.5-1.3 2.8-2.8 2.8zm-4.6-6.5h-16.3c-1.5 0-2.8-1.2-2.8-2.8v-.8c0-1.5 1.2-2.8 2.8-2.8h16.3c1.5 0 2.8 1.2 2.8 2.8v.8c0 1.6-1.3 2.8-2.8 2.8zm3-6.4h-16.3c-1.5 0-2.8-1.2-2.8-2.8v-.8c0-1.5 1.2-2.8 2.8-2.8h16.3c1.5 0 2.8 1.2 2.8 2.8v.8c0 1.6-1.3 2.8-2.8 2.8zm0-6.4h-16.3c-1.5 0-2.8-1.2-2.8-2.8v-.8c0-1.5 1.2-2.8 2.8-2.8h16.3c1.5 0 2.8 1.2 2.8 2.8v.8c0 1.6-1.3 2.8-2.8 2.8zm-3.9-6.4h-16.3c-1.5 0-2.8-1.2-2.8-2.8v-.8c0-1.5 1.2-2.8 2.8-2.8h16.3c1.5 0 2.8 1.2 2.8 2.8v.8c0 1.6-1.3 2.8-2.8 2.8zm3.9-6.4h-16.3c-1.5 0-2.8-1.2-2.8-2.8v-.8c0-1.5 1.2-2.8 2.8-2.8h16.3c1.5 0 2.8 1.2 2.8 2.8v.8c0 1.6-1.3 2.8-2.8 2.8z"/><path class="st3" d="M545.5 218.7v-16.4c0-10.7 8.7-19.4 19.4-19.4s19.4 8.7 19.4 19.4v16.4"/></g><path class="st15" d="M458.9 197.9h86.9m-40.8-1.1v-35.4"/><g class="st0"><path class="st3" d="M1498 80.4v17.7h-40.8v13.1l-16.7-13.1h-8.9V49.8h35.1"/><path id="XMLID_54_" class="st3" d="M1440.2 78.9h28.9"/><path id="XMLID_52_" class="st3" d="M1440.2 69.8h28.6"/><path id="XMLID_50_" class="st3" d="M1440.2 87.9h31.6"/><path id="XMLID_15_" class="st3" d="M1440.2 60.8h26.8"/><path class="st3" d="M1468.7 31v48.3h41.5v13.1l16.8-13.1h8.8V31z"/><circle class="st14" cx="1489.2" cy="55.3" r="3.8"/><circle class="st14" cx="1502.3" cy="55.3" r="3.8"/><circle class="st14" cx="1515.5" cy="55.3" r="3.8"/></g><path class="st9" d="M1536.6 67c12.6 0 22.8 10.2 22.8 22.8v24"/></svg>